<svg width="18" height="18" viewBox="0 0 18 18" fill="none" xmlns="http://www.w3.org/2000/svg">
<g clip-path="url(#clip0_45_547)">
<path d="M7.75195 10.452L10.2483 9.00373L7.75195 7.54834V10.452Z" fill="black"/>
<path d="M8.99999 0C7.21996 0 5.47991 0.527841 3.99987 1.51677C2.51983 2.50571 1.36627 3.91131 0.685087 5.55585C0.00389953 7.20038 -0.17433 9.00998 0.172936 10.7558C0.520203 12.5016 1.37737 14.1053 2.63604 15.364C3.89471 16.6226 5.49835 17.4798 7.24418 17.8271C8.99001 18.1743 10.7996 17.9961 12.4441 17.3149C14.0887 16.6337 15.4943 15.4802 16.4832 14.0001C17.4721 12.5201 18 10.78 18 9C18 6.61305 17.0518 4.32387 15.3639 2.63604C13.6761 0.948211 11.3869 0 8.99999 0V0ZM13.7368 10.5928C13.737 10.8282 13.6908 11.0613 13.6008 11.2788C13.5108 11.4963 13.3789 11.694 13.2125 11.8605C13.0461 12.027 12.8485 12.159 12.631 12.2492C12.4136 12.3393 12.1805 12.3857 11.9451 12.3857H6.05486C5.81947 12.3857 5.58639 12.3393 5.36893 12.2492C5.15148 12.159 4.95391 12.027 4.78752 11.8605C4.62112 11.694 4.48917 11.4963 4.3992 11.2788C4.30923 11.0613 4.263 10.8282 4.26316 10.5928V7.40724C4.263 7.17185 4.30923 6.93873 4.3992 6.72122C4.48917 6.5037 4.62112 6.30604 4.78752 6.13954C4.95391 5.97304 5.15148 5.84096 5.36893 5.75084C5.58639 5.66073 5.81947 5.61434 6.05486 5.61434H11.9451C12.1805 5.61434 12.4136 5.66073 12.631 5.75084C12.8485 5.84096 13.0461 5.97304 13.2125 6.13954C13.3789 6.30604 13.5108 6.5037 13.6008 6.72122C13.6908 6.93873 13.737 7.17185 13.7368 7.40724V10.5928Z" fill="black"/>
</g>
<defs>
<clipPath id="clip0_45_547">
<rect width="18" height="18" fill="white"/>
</clipPath>
</defs>
</svg>
