<svg width="18" height="18" viewBox="0 0 18 18" fill="none" xmlns="http://www.w3.org/2000/svg">
<g clip-path="url(#clip0_45_541)">
<path d="M8.99999 0C7.21996 0 5.47991 0.527841 3.99987 1.51677C2.51983 2.50571 1.36627 3.91131 0.685087 5.55585C0.00389953 7.20038 -0.17433 9.00998 0.172936 10.7558C0.520203 12.5016 1.37737 14.1053 2.63604 15.364C3.89471 16.6226 5.49835 17.4798 7.24418 17.8271C8.99001 18.1743 10.7996 17.9961 12.4441 17.3149C14.0887 16.6337 15.4943 15.4802 16.4832 14.0001C17.4721 12.5201 18 10.78 18 9C18 6.61305 17.0518 4.32387 15.3639 2.63604C13.6761 0.948212 11.3869 0 8.99999 0V0ZM11.5602 5.85711C11.5602 6.02645 11.4892 6.09395 11.3234 6.09395C11.0049 6.09395 10.6863 6.09395 10.3689 6.10697C10.0516 6.12 9.87867 6.26447 9.87867 6.59605C9.87157 6.95132 9.87867 7.29947 9.87867 7.66184H11.2417C11.4359 7.66184 11.5022 7.72816 11.5022 7.92355C11.5022 8.39724 11.5022 8.87329 11.5022 9.35171C11.5022 9.54474 11.4406 9.60513 11.2452 9.60632H9.86683V13.4597C9.86683 13.6658 9.80288 13.7309 9.5992 13.7309H8.11657C7.93775 13.7309 7.86789 13.6611 7.86789 13.4822V9.61224H6.69078C6.50605 9.61224 6.43973 9.54474 6.43973 9.35882C6.43973 8.87961 6.43973 8.40079 6.43973 7.92237C6.43973 7.73763 6.5096 7.66776 6.69197 7.66776H7.86789V6.63158C7.85393 6.16614 7.9656 5.70553 8.19117 5.29816C8.42567 4.88689 8.80142 4.57468 9.24867 4.41947C9.53893 4.31386 9.84572 4.26092 10.1546 4.26316H11.3187C11.4856 4.26316 11.5555 4.33658 11.5555 4.5C11.5614 4.95592 11.5614 5.40711 11.5602 5.85711V5.85711Z" fill="black"/>
</g>
<defs>
<clipPath id="clip0_45_541">
<rect width="18" height="18" fill="white"/>
</clipPath>
</defs>
</svg>
