<svg width="18" height="18" viewBox="0 0 18 18" fill="none" xmlns="http://www.w3.org/2000/svg">
<g clip-path="url(#clip0_45_545)">
<path d="M9 0.000976562C4.03021 0.000976562 0 4.03118 0 9.00098C0 13.9708 4.03021 18.001 9 18.001C13.9698 18.001 18 13.9708 18 9.00098C18 4.03118 13.9698 0.000976562 9 0.000976562ZM13.5151 6.88714V8.10576C12.9405 8.10597 12.3822 7.99336 11.8556 7.77121C11.517 7.62827 11.2016 7.44408 10.913 7.22151L10.9217 10.9724C10.9181 11.8171 10.5839 12.6106 9.9791 13.2084C9.48691 13.695 8.86324 14.0044 8.18726 14.1045C8.02842 14.1281 7.86677 14.1401 7.7033 14.1401C6.97968 14.1401 6.29269 13.9057 5.73071 13.4732C5.62497 13.3918 5.52382 13.3035 5.42753 13.2084C4.77207 12.5606 4.43408 11.6826 4.491 10.7589C4.53442 10.0558 4.81591 9.3853 5.28518 8.85975C5.90604 8.16429 6.77461 7.77828 7.7033 7.77828C7.86677 7.77828 8.02842 7.79055 8.18726 7.81407V8.26463V9.51802C8.03665 9.46834 7.87581 9.44103 7.70832 9.44103C6.85986 9.44103 6.17344 10.1333 6.18613 10.9823C6.19418 11.5256 6.49093 12.0005 6.92863 12.2623C7.13433 12.3853 7.37096 12.4615 7.62349 12.4754C7.82135 12.4863 8.01134 12.4587 8.18726 12.4006C8.79346 12.2004 9.23077 11.631 9.23077 10.9594L9.23277 8.44762V3.86184H10.911C10.9126 4.02812 10.9295 4.19037 10.9608 4.34759C11.0875 4.98395 11.4462 5.53605 11.9454 5.91243C12.3807 6.24075 12.9228 6.43538 13.5103 6.43538C13.5107 6.43538 13.5155 6.43538 13.5151 6.43499V6.88714H13.5151Z" fill="black"/>
</g>
<defs>
<clipPath id="clip0_45_545">
<rect width="18" height="18" fill="white" transform="translate(0 0.000976562)"/>
</clipPath>
</defs>
</svg>
