<svg width="74" height="70" viewBox="0 0 74 70" fill="none" xmlns="http://www.w3.org/2000/svg">
<path d="M73.3308 26.4752C73.0259 25.5398 72.2171 24.8575 71.2429 24.7154L48.9959 21.4852L39.047 1.32373C38.1761 -0.441243 35.2819 -0.441243 34.411 1.32373L24.4621 21.4852L2.21517 24.7154C1.24095 24.8575 0.432113 25.5398 0.127184 26.4752C-0.177745 27.4107 0.0755012 28.4366 0.780973 29.124L16.8776 44.8149L13.0763 66.9765C12.911 67.9456 13.3089 68.925 14.1048 69.5038C14.9033 70.0878 15.9577 70.1602 16.8259 69.7002L36.729 59.2396L56.6295 69.7002C57.0068 69.8992 57.4203 69.9974 57.8311 69.9974C58.3661 69.9974 58.901 69.832 59.3506 69.5038C60.1465 68.925 60.5445 67.9456 60.3791 66.9765L56.5778 44.8149L72.6745 29.124C73.3799 28.4366 73.6332 27.4107 73.3308 26.4752ZM51.9961 42.0654C51.3889 42.6571 51.1098 43.5151 51.2519 44.3523L54.3968 62.692L37.9281 54.0351C37.5559 53.8362 37.1425 53.7354 36.729 53.7354C36.3156 53.7354 35.9021 53.8336 35.5274 54.0325L19.0586 62.6894L22.2035 44.3498C22.3457 43.5125 22.0692 42.6571 21.4593 42.0628L8.13803 29.0775L26.5475 26.4029C27.3899 26.2814 28.1161 25.7517 28.4933 24.9893L36.729 8.30609L44.9621 24.9893C45.3394 25.7517 46.0655 26.2814 46.908 26.4029L65.3174 29.0775L51.9961 42.0654Z" fill="#F7D20C"/>
</svg>
