<svg width="70" height="70" viewBox="0 0 70 70" fill="none" xmlns="http://www.w3.org/2000/svg">
<path d="M67.337 16.1739L36.4264 0.511771L36.4135 0.505345C35.0372 -0.17989 33.4018 -0.164577 32.0383 0.54636L18.7808 7.58245C18.673 7.62812 18.5696 7.68349 18.4704 7.7472L2.58344 16.1789C0.989844 17.0133 0 18.6482 0 20.4476V49.5524C0 51.3517 0.989844 52.9865 2.58344 53.8209L32.0251 69.4467L32.0384 69.4537C32.7337 69.8163 33.5001 69.998 34.2665 69.998C35.0027 69.998 35.7392 69.8304 36.4135 69.4946L67.337 53.8261C68.9798 53.0045 70 51.3541 70 49.5168V20.4832C70 18.6459 68.9798 16.9953 67.337 16.1739ZM33.9387 4.17939C34.1395 4.0763 34.3793 4.07425 34.5819 4.17365L63.5156 18.834L52.2549 24.4401L23.9679 9.47122L33.9387 4.17939ZM32.1869 64.8909L4.49941 50.1959L4.48615 50.1889C4.24813 50.0647 4.10006 49.8209 4.10006 49.5524V22.2976L32.1869 36.9435V64.8909ZM34.2586 33.3997L6.32625 18.8344L19.5913 11.7943L47.7382 26.6889L34.2586 33.3997ZM65.8997 49.5166C65.8998 49.791 65.7472 50.0373 65.5017 50.1595L36.2871 64.9622V36.9699L49.7383 30.2731V37.2943C49.7383 38.4265 50.6562 39.3444 51.7884 39.3444C52.9205 39.3444 53.8385 38.4265 53.8385 37.2943V28.2318L65.8997 22.2271V49.5166Z" fill="white"/>
</svg>
