<svg width="70" height="70" viewBox="0 0 70 70" fill="none" xmlns="http://www.w3.org/2000/svg">
<path d="M35 0C15.6977 0 0 15.6977 0 35C0 54.3023 15.6977 70 35 70C54.3023 70 70 54.3023 70 35C70 15.6977 54.3023 0 35 0ZM35 4.66667C51.7803 4.66667 65.3516 18.2197 65.3516 35C65.3516 51.7803 51.7803 65.3516 35 65.3516C18.2197 65.3516 4.66667 51.7803 4.66667 35C4.66667 18.2197 18.2197 4.66667 35 4.66667ZM34.9681 16.347C34.3517 16.3579 33.7646 16.6122 33.335 17.0545C32.9055 17.4969 32.6685 18.0912 32.6758 18.7077V20.6719C28.9083 21.3786 25.6849 23.8047 25.6849 28.0091C25.6849 30.9258 26.9998 33.2847 28.7656 34.6582C30.5315 36.0317 32.5254 36.6406 34.2754 37.224C36.0254 37.8073 37.536 38.365 38.3952 39.0332C39.2543 39.7014 39.6667 40.2637 39.6667 42.0137C39.6667 45.9026 30.3516 45.9026 30.3516 42.0137C30.3585 41.7029 30.3032 41.3939 30.189 41.1047C30.0749 40.8156 29.9041 40.5522 29.6867 40.33C29.4694 40.1078 29.2098 39.9312 28.9233 39.8106C28.6368 39.6901 28.3291 39.628 28.0182 39.628C27.7074 39.628 27.3997 39.6901 27.1131 39.8106C26.8266 39.9312 26.5671 40.1078 26.3497 40.33C26.1324 40.5522 25.9616 40.8156 25.8474 41.1047C25.7333 41.3939 25.678 41.7029 25.6849 42.0137C25.6849 46.2148 28.9111 48.6455 32.6758 49.3555V51.3105C32.6689 51.6213 32.7241 51.9303 32.8383 52.2195C32.9525 52.5086 33.1232 52.772 33.3406 52.9942C33.5579 53.2164 33.8175 53.393 34.104 53.5136C34.3905 53.6341 34.6983 53.6962 35.0091 53.6962C35.32 53.6962 35.6277 53.6341 35.9142 53.5136C36.2007 53.393 36.4603 53.2164 36.6776 52.9942C36.895 52.772 37.0658 52.5086 37.1799 52.2195C37.2941 51.9303 37.3493 51.6213 37.3424 51.3105V49.3555C41.1078 48.6458 44.3379 46.2154 44.3379 42.0137C44.3379 39.097 43.0185 36.738 41.2526 35.3646C39.4867 33.9911 37.4928 33.3776 35.7428 32.7943C33.9928 32.2109 32.4822 31.6578 31.623 30.9896C30.7639 30.3214 30.3516 29.7591 30.3516 28.0091C30.3516 24.1202 39.6667 24.1202 39.6667 28.0091C39.6667 28.6286 39.9127 29.2226 40.3507 29.6606C40.7888 30.0987 41.3828 30.3447 42.0023 30.3447C42.6217 30.3447 43.2158 30.0987 43.6538 29.6606C44.0918 29.2226 44.3379 28.6286 44.3379 28.0091C44.3379 23.811 41.1067 21.3874 37.3424 20.6764V18.7077C37.3461 18.3955 37.2871 18.0857 37.1689 17.7968C37.0507 17.5078 36.8757 17.2455 36.6544 17.0254C36.4329 16.8052 36.1696 16.6318 35.88 16.5153C35.5903 16.3987 35.2803 16.3415 34.9681 16.347H34.9681Z" fill="white"/>
</svg>
