<svg width="18" height="18" viewBox="0 0 18 18" fill="none" xmlns="http://www.w3.org/2000/svg">
<path d="M18 5.97056V15.9877C17.9995 16.5212 17.7886 17.0328 17.4136 17.41C17.0387 17.7873 16.5303 17.9995 16 18H12.6667C12.313 18 11.9739 17.8587 11.7239 17.6071C11.4738 17.3555 11.3333 17.0143 11.3333 16.6585V12.9693C11.3333 12.7914 11.2631 12.6208 11.1381 12.495C11.013 12.3692 10.8435 12.2985 10.6667 12.2985H7.33333C7.15652 12.2985 6.98695 12.3692 6.86193 12.495C6.73691 12.6208 6.66667 12.7914 6.66667 12.9693V16.6585C6.66667 17.0143 6.52619 17.3555 6.27614 17.6071C6.02609 17.8587 5.68696 18 5.33333 18H2C1.46973 17.9995 0.961329 17.7873 0.586371 17.41C0.211413 17.0328 0.000529477 16.5212 0 15.9877V5.97056C0.000498861 5.73891 0.0603284 5.51129 0.173716 5.30968C0.287104 5.10806 0.450222 4.93925 0.647333 4.81954L8.314 0.191281C8.52126 0.0661179 8.75844 0 9.00017 0C9.24189 0 9.47907 0.0661179 9.68633 0.191281L17.353 4.81954C17.55 4.93929 17.7131 5.10812 17.8264 5.30973C17.9398 5.51135 17.9995 5.73894 18 5.97056Z" fill="#F37131"/>
</svg>
