<svg width="14" height="18" viewBox="0 0 14 18" fill="none" xmlns="http://www.w3.org/2000/svg">
<path d="M12.25 0H1.75C0.784875 0 0 0.8073 0 1.8V16.2C0 17.1927 0.784875 18 1.75 18H12.25C13.2151 18 14 17.1927 14 16.2V1.8C14 0.8073 13.2151 0 12.25 0ZM4.375 3.6H7C7.48387 3.6 7.875 4.0023 7.875 4.5C7.875 4.9977 7.48387 5.4 7 5.4H4.375C3.89112 5.4 3.5 4.9977 3.5 4.5C3.5 4.0023 3.89112 3.6 4.375 3.6ZM9.625 14.4H4.375C3.89112 14.4 3.5 13.9977 3.5 13.5C3.5 13.0023 3.89112 12.6 4.375 12.6H9.625C10.1089 12.6 10.5 13.0023 10.5 13.5C10.5 13.9977 10.1089 14.4 9.625 14.4ZM9.625 11.7H4.375C3.89112 11.7 3.5 11.2977 3.5 10.8C3.5 10.3023 3.89112 9.9 4.375 9.9H9.625C10.1089 9.9 10.5 10.3023 10.5 10.8C10.5 11.2977 10.1089 11.7 9.625 11.7ZM9.625 9H4.375C3.89112 9 3.5 8.5977 3.5 8.1C3.5 7.6023 3.89112 7.2 4.375 7.2H9.625C10.1089 7.2 10.5 7.6023 10.5 8.1C10.5 8.5977 10.1089 9 9.625 9Z" fill="#F37131"/>
</svg>
