<svg width="18" height="18" viewBox="0 0 18 18" fill="none" xmlns="http://www.w3.org/2000/svg">
<path d="M9 0C4.03763 0 0 4.03763 0 9V17.4375C0 17.748 0.252 18 0.5625 18H9C13.9624 18 18 13.9624 18 9C18 4.03763 13.9624 0 9 0ZM9.5625 11.25H5.0625C4.752 11.25 4.5 10.998 4.5 10.6875C4.5 10.377 4.752 10.125 5.0625 10.125H9.5625C9.873 10.125 10.125 10.377 10.125 10.6875C10.125 10.998 9.873 11.25 9.5625 11.25ZM12.9375 7.875H5.0625C4.752 7.875 4.5 7.623 4.5 7.3125C4.5 7.002 4.752 6.75 5.0625 6.75H12.9375C13.248 6.75 13.5 7.002 13.5 7.3125C13.5 7.623 13.248 7.875 12.9375 7.875Z" fill="#F37131"/>
</svg>
