<svg width="76" height="50" viewBox="0 0 76 50" fill="none" xmlns="http://www.w3.org/2000/svg">
<g clip-path="url(#clip0_45_763)">
<path d="M41.1371 26.6327C40.39 26.0138 39.6463 25.4616 38.9522 24.9812L38.9659 24.9897C39.6497 24.5076 40.3968 23.9554 41.1405 23.3348C45.1855 19.9651 47.2354 16.4416 47.2354 12.8633C47.2354 9.45174 45.8802 6.17991 43.4678 3.76757C41.0555 1.35524 37.7836 0 34.3721 0C30.9605 0 27.6887 1.35524 25.2764 3.76757C22.864 6.17991 21.5088 9.45174 21.5088 12.8633C21.5088 16.4723 23.5604 20.0062 27.6088 23.3656C28.3507 23.9811 29.0893 24.5299 29.78 25.0086C29.0962 25.4907 28.349 26.0429 27.6054 26.6635C23.5604 30.0349 21.5088 33.5567 21.5088 37.1367C21.5088 40.5483 22.864 43.8201 25.2764 46.2324C27.6887 48.6448 30.9605 50 34.3721 50C37.7836 50 41.0555 48.6448 43.4678 46.2324C45.8802 43.8201 47.2354 40.5483 47.2354 37.1367C47.2354 33.526 45.1838 29.9921 41.1371 26.6327ZM26.306 12.8633C26.3369 10.7442 27.2004 8.72226 28.7098 7.23459C30.2193 5.74692 32.2536 4.91297 34.3729 4.91297C36.4923 4.91297 38.5266 5.74692 40.036 7.23459C41.5455 8.72226 42.409 10.7442 42.4399 12.8633C42.4399 15.4414 40.0977 17.9478 38.1333 19.5958C36.9509 20.5784 35.6933 21.4667 34.3721 22.2526C33.0503 21.4765 31.7925 20.5961 30.6109 19.6198C28.6448 17.9802 26.306 15.4808 26.306 12.8633ZM34.3721 45.2028C32.2337 45.2001 30.1836 44.3494 28.6715 42.8373C27.1594 41.3252 26.3087 39.2751 26.306 37.1367C26.306 34.5569 28.6465 32.0505 30.6109 30.4025C31.798 29.4175 33.0608 28.5275 34.3875 27.7406C37.2733 29.4382 42.4399 33.2695 42.4399 37.1435C42.4353 39.2811 41.5836 41.3296 40.0713 42.8403C38.5591 44.351 36.5096 45.2005 34.3721 45.2028Z" fill="black"/>
<path d="M41.1373 26.6327C40.3954 26.0172 39.6551 25.4684 38.9661 24.9897C37.8434 25.7805 36.671 26.4984 35.4562 27.1388L34.5672 27.638L34.3826 27.7388C37.2684 29.4348 42.4401 33.2678 42.4401 37.1418H47.2356C47.2356 33.526 45.184 29.9921 41.1373 26.6327Z" fill="black"/>
<path d="M34.3618 22.2594C31.476 20.5635 26.306 16.7305 26.306 12.8564H21.5088C21.5088 16.4655 23.5604 19.9993 27.6088 23.3587C28.3507 23.9742 29.0893 24.523 29.78 25.0017C30.903 24.2123 32.0748 23.4945 33.2882 22.8527L34.3618 22.2594Z" fill="black"/>
<path d="M6.06743e-07 2.61402C6.06743e-07 1.97514 0.253793 1.36243 0.705545 0.910682C1.1573 0.45893 1.77 0.205139 2.40888 0.205139H7.91903C14.2789 0.205139 19.3992 5.26224 19.3992 11.4887C19.3992 17.7152 14.2789 22.7723 7.91903 22.7723H2.40888C2.0924 22.7723 1.77901 22.71 1.48664 22.5888C1.19428 22.4676 0.928647 22.29 0.70494 22.0662C0.481232 21.8423 0.303831 21.5766 0.182874 21.2841C0.0619174 20.9916 -0.000224008 20.6782 6.06743e-07 20.3617V2.61402ZM7.91903 18.1426C11.7042 18.1426 14.2789 15.12 14.2789 11.4956C14.2789 7.87115 11.7042 4.84851 7.91903 4.84851H5.67086C5.51625 4.84851 5.36796 4.90993 5.25863 5.01926C5.1493 5.12859 5.08788 5.27688 5.08788 5.4315V17.5579C5.08788 17.7127 5.14924 17.8612 5.25852 17.9708C5.36781 18.0804 5.51609 18.1422 5.67086 18.1426H7.91903Z" fill="black"/>
<path d="M56.1394 13.6258H56.0762V20.3771C56.0762 21.0154 55.8228 21.6276 55.3718 22.0793C54.9208 22.5309 54.309 22.7851 53.6707 22.786H53.3989C52.76 22.786 52.1473 22.5322 51.6955 22.0805C51.2438 21.6287 50.99 21.016 50.99 20.3771V2.61402C50.99 2.29753 51.0524 1.98415 51.1735 1.69178C51.2947 1.39941 51.4723 1.13379 51.6961 0.910079C51.92 0.686372 52.1858 0.50897 52.4782 0.388013C52.7707 0.267057 53.0841 0.204915 53.4006 0.20514H59.3125C62.8805 0.20514 65.9698 2.90978 66.2006 6.46924C66.2934 7.91008 65.9214 9.34266 65.1395 10.5564C64.3575 11.7701 63.2068 12.7009 61.8564 13.212L66.2297 18.912C66.5036 19.2684 66.6723 19.6944 66.7166 20.1418C66.7608 20.5891 66.679 21.0399 66.4802 21.4431C66.2814 21.8464 65.9737 22.1859 65.592 22.4232C65.2102 22.6605 64.7696 22.7862 64.32 22.786C63.9498 22.786 63.5845 22.7006 63.2527 22.5363C62.9208 22.372 62.6314 22.1333 62.4069 21.8389L56.1394 13.6258ZM58.9381 9.32605C60.3058 9.32605 61.2906 8.33959 61.2906 7.10352C61.2906 5.86745 60.3058 4.84509 58.9381 4.84509H56.6591C56.5045 4.84509 56.3562 4.90651 56.2469 5.01584C56.1376 5.12517 56.0762 5.27346 56.0762 5.42808V8.74648C56.0762 8.9011 56.1376 9.04938 56.2469 9.15871C56.3562 9.26804 56.5045 9.32946 56.6591 9.32946L58.9381 9.32605Z" fill="black"/>
<path d="M73.4067 27.1165C74.0814 27.1165 74.7285 27.3846 75.2056 27.8617C75.6826 28.3387 75.9507 28.9858 75.9507 29.6605V47.1637C75.9507 47.8384 75.6826 48.4855 75.2056 48.9626C74.7285 49.4396 74.0814 49.7077 73.4067 49.7077C72.732 49.7077 72.085 49.4396 71.6079 48.9626C71.1308 48.4855 70.8628 47.8384 70.8628 47.1637V29.6605C70.8628 28.9858 71.1308 28.3387 71.6079 27.8617C72.085 27.3846 72.732 27.1165 73.4067 27.1165Z" fill="black"/>
<path d="M73.4067 0.20343C74.0816 0.203883 74.7286 0.472285 75.2057 0.949637C75.6827 1.42699 75.9507 2.07423 75.9507 2.74908V20.2523C75.9507 20.927 75.6826 21.5741 75.2056 22.0512C74.7285 22.5282 74.0814 22.7963 73.4067 22.7963C72.732 22.7963 72.085 22.5282 71.6079 22.0512C71.1308 21.5741 70.8628 20.927 70.8628 20.2523V2.74908C70.8628 2.07423 71.1308 1.42699 71.6078 0.949637C72.0848 0.472285 72.7319 0.203883 73.4067 0.20343Z" fill="black"/>
<path d="M0 29.5374C0 28.8985 0.253792 28.2858 0.705544 27.8341C1.1573 27.3823 1.77 27.1285 2.40888 27.1285H7.91903C14.2789 27.1285 19.3992 32.1856 19.3992 38.4121C19.3992 44.6386 14.2789 49.6957 7.91903 49.6957H2.40888C1.77 49.6957 1.1573 49.4419 0.705544 48.9902C0.253792 48.5384 0 47.9257 0 47.2868V29.5374ZM7.91903 45.0575C11.7042 45.0575 14.2789 42.0365 14.2789 38.4121C14.2789 34.7877 11.7042 31.765 7.91903 31.765H5.67086C5.51624 31.765 5.36796 31.8265 5.25863 31.9358C5.1493 32.0451 5.08788 32.1934 5.08788 32.348V44.4745C5.08788 44.6291 5.1493 44.7774 5.25863 44.8867C5.36796 44.996 5.51624 45.0575 5.67086 45.0575H7.91903Z" fill="black"/>
<path d="M56.1394 40.5491H56.0762V47.3005C56.0762 47.9386 55.8228 48.5506 55.3717 49.002C54.9207 49.4534 54.3088 49.7072 53.6707 49.7077H53.3989C53.0826 49.7079 52.7694 49.6458 52.4772 49.5249C52.1849 49.404 51.9193 49.2268 51.6956 49.0032C51.4719 48.7797 51.2945 48.5142 51.1734 48.2221C51.0523 47.9299 50.99 47.6167 50.99 47.3005V29.5374C50.99 29.2209 51.0524 28.9075 51.1735 28.6152C51.2947 28.3228 51.4723 28.0572 51.6961 27.8334C51.92 27.6097 52.1858 27.4323 52.4782 27.3114C52.7707 27.1904 53.0841 27.1283 53.4006 27.1285H59.3125C62.8805 27.1285 65.9698 29.8331 66.2006 33.3926C66.2934 34.8334 65.9214 36.266 65.1395 37.4797C64.3575 38.6935 63.2068 39.6243 61.8564 40.1354L66.2297 45.8336C66.5036 46.1901 66.6723 46.6161 66.7166 47.0634C66.7608 47.5108 66.679 47.9616 66.4802 48.3648C66.2814 48.768 65.9737 49.1075 65.592 49.3448C65.2102 49.5822 64.7696 49.7078 64.32 49.7077C63.9499 49.708 63.5847 49.6229 63.2528 49.4589C62.921 49.2949 62.6315 49.0565 62.4069 48.7622L56.1394 40.5491ZM58.9381 36.2562C60.3058 36.2562 61.2906 35.2698 61.2906 34.0337C61.2906 32.7977 60.3058 31.7753 58.9381 31.7753H56.6591C56.5825 31.7751 56.5066 31.79 56.4358 31.8192C56.3649 31.8484 56.3006 31.8914 56.2464 31.9455C56.1922 31.9997 56.1493 32.0641 56.1201 32.1349C56.0909 32.2057 56.0759 32.2817 56.0762 32.3583V35.675C56.0759 35.7517 56.0908 35.8277 56.12 35.8986C56.1492 35.9695 56.1921 36.034 56.2463 36.0883C56.3005 36.1426 56.3648 36.1857 56.4356 36.2151C56.5065 36.2445 56.5824 36.2597 56.6591 36.2597L58.9381 36.2562Z" fill="black"/>
</g>
<defs>
<clipPath id="clip0_45_763">
<rect width="75.9506" height="50" fill="white"/>
</clipPath>
</defs>
</svg>
